<?xml version="1.0" encoding="UTF-8"?>
<svg width="68px" height="18px" viewBox="0 0 68 18" version="1.1" xmlns="http://www.w3.org/2000/svg" xmlns:xlink="http://www.w3.org/1999/xlink">
    <!-- Generator: sketchtool 52 (66869) - http://www.bohemiancoding.com/sketch -->
    <title>8104427E-145C-43FC-8ABC-63C2167044F3</title>
    <desc>Created with sketchtool.</desc>
    <g id="Reports-UI-(Rishi)" stroke="none" stroke-width="1" fill="none" fill-rule="evenodd">
        <g id="Transaction-Report-/-Fetch-Transaction-Report-/-List-Collapsed" transform="translate(-730.000000, -848.000000)">
            <g id="Group-11" transform="translate(140.000000, 364.000000)">
                <g id="Group-6" transform="translate(0.000000, 439.000000)">
                    <g id="Group-5" transform="translate(20.000000, 12.000000)">
                        <g id="diners-club-international-2" transform="translate(570.000000, 33.000000)">
                            <path d="M30.6495119,4.13303518 C30.681778,4.02028906 30.7140442,3.89938369 31.1735588,3.89938369 C32.5999455,3.89938369 32.8736515,4.89036269 32.8736515,5.70443414 C32.8736515,6.19584401 32.6077338,8.67774202 30.0694628,8.67774202 C29.690799,8.67774202 29.4972021,8.62952822 29.4972021,8.36361058 C29.4972021,8.23454595 29.6021598,7.87998909 29.6744805,7.61407145 L30.6495119,4.13303518 Z M29.1752822,3.7862667 C29.5862122,3.81853286 29.7957567,3.85895828 29.7957567,4.13303518 C29.7957567,4.29436597 29.7312244,4.54396509 29.7071175,4.63260431 L28.7161385,8.19449141 C28.5792855,8.69406054 28.4583801,8.71816744 28.0633979,8.79048814 L28.0633979,8.91955277 L30.1020998,8.91955277 C32.4712517,8.91955277 33.7685738,7.42863376 33.7685738,5.80123262 C33.7685738,4.95526588 33.2690046,3.65757295 31.4157404,3.65757295 L29.1756531,3.65757295 L29.1756531,3.7862667 L29.1752822,3.7862667 Z M35.4360295,8.08953368 C35.121898,8.56499591 34.7673412,9.00819198 34.3159858,9.00819198 C33.9373221,9.00819198 33.9373221,8.65363512 33.9373221,8.50862285 C33.9373221,8.12995909 34.5737442,6.1313117 34.5737442,5.90581947 C34.5737442,5.7367003 34.5092119,5.69627488 34.0660158,5.69627488 L34.0660158,5.56721025 C34.3723589,5.55126261 35.0410472,5.42219798 35.3551786,5.36582493 L35.3792855,5.38177257 L34.6701718,7.97641669 C34.6379056,8.0891628 34.5411072,8.4114535 34.5411072,8.50825198 C34.5411072,8.56462503 34.5974802,8.62915735 34.6701718,8.62915735 C34.7669703,8.62915735 35.0006218,8.46782656 35.3310717,8.00052359 L35.4360295,8.08953368 Z M35.2750695,4.50353968 C35.0736842,4.50353968 34.8882465,4.36631579 34.8882465,4.0844505 C34.8882465,3.80258522 35.0736842,3.64941369 35.2669103,3.64941369 C35.5328279,3.64941369 35.6696809,3.91533133 35.6696809,4.09260976 C35.6696809,4.25356968 35.5406163,4.50353968 35.2750695,4.50353968 Z M39.1993019,8.08137442 C38.7965312,8.62136897 38.5142951,8.99187347 38.0792582,8.99187347 C37.7083829,8.99187347 37.6924352,8.75006272 37.6924352,8.51641124 C37.6924352,8.32318516 38.2888028,6.35680393 38.2888028,6.03451323 C38.2888028,5.88950095 38.240589,5.77675484 38.0874175,5.77675484 C37.7005945,5.77675484 37.1928661,6.46992092 36.9028416,6.92090537 C36.5323371,7.47684756 36.4273793,7.82361603 36.0973002,8.91918189 L35.4931443,8.91918189 C35.7427434,8.00868285 36.2827379,6.12315244 36.2827379,5.95366239 C36.2827379,5.83275702 36.202258,5.74411781 35.7672212,5.74411781 L35.7672212,5.61505318 C36.202258,5.53457322 36.6372948,5.45409326 37.0727025,5.36545405 L37.0968094,5.38140169 L36.5809217,7.06554677 L36.5968694,7.08149441 C36.9755331,6.48512681 37.716913,5.36508317 38.3856013,5.36508317 C38.7564767,5.36508317 38.9415435,5.55830924 38.9415435,5.89691846 C38.9415435,6.24331606 38.2969621,8.2338042 38.2969621,8.47561494 C38.2969621,8.59652032 38.4097082,8.61283883 38.4260267,8.61283883 C38.5873575,8.61283883 38.7887428,8.35508045 39.0869266,7.97604581 L39.1993019,8.08137442 Z M40.2307063,6.88863921 C40.5288901,6.17136624 41.076673,5.55126261 41.5120807,5.55126261 C41.713466,5.55126261 41.793946,5.70443414 41.793946,5.87355331 C41.793946,5.93808563 41.7538915,6.90495773 40.0938533,7.24356695 L40.2307063,6.88863921 Z M41.8903736,8.040949 C41.4876029,8.37139896 41.1489937,8.64547587 40.7139569,8.64547587 C40.3753477,8.64547587 39.9566294,8.46003818 39.9566294,7.91188437 C39.9566294,7.75055359 39.9970548,7.58959367 40.0371094,7.4204745 L40.2626016,7.38820834 C41.5680829,7.20277066 42.3254104,6.55003 42.3254104,5.91360785 C42.3254104,5.559051 42.0754404,5.36545405 41.6645105,5.36545405 C40.5285192,5.36545405 39.2553041,6.71914917 39.2553041,7.87145896 C39.2553041,8.37918735 39.5130624,9.00745023 40.3594001,9.00745023 C41.1653122,9.00745023 41.8985329,8.26607036 41.9871721,8.13700573 L41.8903736,8.040949 Z M42.3821543,8.91918189 L43.034895,6.56634851 C43.115375,6.26816471 43.1635888,5.99445869 43.1635888,5.92176711 C43.1635888,5.809021 43.1235342,5.68032724 42.8735642,5.68032724 C42.784925,5.68032724 42.6962858,5.70443414 42.6076466,5.72038178 L42.6076466,5.58352877 C43.0185765,5.52715571 43.4940387,5.42219798 43.8567548,5.36582493 L43.8808617,5.38177257 L43.4862503,6.98543769 L43.502198,7.00138533 L43.5667303,6.84005454 C43.8326479,6.30821925 44.4453341,5.36545405 44.9526916,5.36545405 C45.1381293,5.36545405 45.3395146,5.48635942 45.3395146,5.76006545 C45.3395146,6.17915462 45.04949,6.17915462 44.9608508,6.17915462 C44.6144532,6.17915462 44.7353586,5.88913008 44.5417617,5.88913008 C44.2921625,5.88913008 43.808541,6.78368148 43.7440087,6.90458686 C43.4376657,7.48463594 43.3249196,7.84735206 42.9944696,8.91918189 L42.3821543,8.91918189 Z M44.9282138,7.7427652 C44.9845869,8.09732206 45.1136515,8.83870194 45.7663921,8.83870194 C46.2173766,8.83870194 46.3464412,8.45187892 46.3464412,8.18596128 C46.3464412,7.65412599 45.3877284,6.88047996 45.3877284,6.26000545 C45.3877284,6.01040633 45.5004745,5.36545405 46.3546005,5.36545405 C46.7173166,5.36545405 46.8782765,5.50267794 47.1200873,5.50267794 C47.2573112,5.50267794 47.305525,5.42219798 47.3455795,5.35729479 L47.4583256,5.35729479 L47.2969948,6.4777093 L47.1679302,6.4777093 C47.1278756,6.01819471 46.9342787,5.55089174 46.4106027,5.55089174 C46.2333242,5.55089174 45.9755659,5.62321244 45.9755659,6.01819471 C45.9755659,6.5259231 46.9583856,7.24319607 46.9583856,7.92783202 C46.9583856,8.8060649 46.2088465,9.00782111 45.757862,9.00782111 C45.5160513,9.00782111 45.1937606,8.85464958 44.9601091,8.85464958 C44.847363,8.85464958 44.8150968,8.93512953 44.766883,9.02413962 L44.6378184,9.02413962 L44.7991492,7.7427652 L44.9282138,7.7427652 Z M54.1225852,5.14812108 C54.1066376,4.92262885 54.033946,3.84263976 52.8816362,3.84263976 C51.2701827,3.84263976 50.447952,5.79270248 50.447952,6.97727843 C50.447952,8.03316062 50.8911481,8.70184892 51.8502318,8.70184892 C52.7607308,8.70184892 53.3248323,8.12958822 53.7116553,7.75092446 L53.8485083,7.86367058 C53.5503245,8.21822743 52.8330515,9.06419416 51.6566349,9.06419416 C50.721658,9.06419416 49.5456122,8.50009272 49.5456122,6.88863921 C49.5456122,5.33355877 50.971628,3.55261522 52.8171039,3.55261522 C53.397153,3.55261522 53.8889337,3.74584129 54.0740005,3.74584129 C54.307652,3.74584129 54.3558658,3.64904281 54.3962912,3.56856286 L54.5654104,3.56856286 L54.2672266,5.17222798 L54.1225852,5.14812108 Z M55.6049741,8.00052359 C55.1940442,8.62099809 54.8795419,9.00782111 54.3799727,9.00782111 C54.0254159,9.00782111 53.9931497,8.73374421 53.9931497,8.50825198 C53.9931497,8.33876193 55.161778,4.1326643 55.161778,3.96354513 C55.161778,3.75437142 54.8231688,3.75437142 54.6136242,3.7621598 L54.6136242,3.63309517 C55.0327134,3.58488137 55.4518026,3.5121898 55.8705209,3.4157622 L55.9109463,3.45581674 L54.6941042,8.12142896 C54.6781565,8.19412053 54.6136242,8.4114535 54.6136242,8.50009272 C54.6136242,8.54830652 54.6136242,8.66142351 54.7345296,8.66142351 C54.9359149,8.66142351 55.105405,8.43593128 55.5000164,7.92783202 L55.6049741,8.00052359 Z M59.3278211,8.04910826 C58.8200927,8.78232888 58.6105481,8.99187347 58.2077775,8.99187347 C57.8450614,8.99187347 57.8291137,8.69368966 57.8291137,8.57278429 C57.8291137,8.42777202 57.9904445,7.75092446 58.1755113,7.09002454 L58.1514044,7.09002454 C57.6032506,8.00052359 57.0072539,9.00782111 56.2818217,9.00782111 C55.9917971,9.00782111 55.8386256,8.88691573 55.8386256,8.53235888 C55.8386256,8.17780202 56.4509408,6.14688846 56.4509408,5.92955549 C56.4509408,5.69590401 56.2977693,5.69590401 55.9676902,5.69590401 L55.9676902,5.58352877 C56.3744471,5.53433953 56.7780161,5.46165004 57.1763731,5.36582493 L57.20048,5.38177257 L56.4668885,8.30686665 C56.4427816,8.4114535 56.4668885,8.58057268 56.6363785,8.58057268 C56.9827761,8.58057268 57.4905045,7.82324516 57.7645814,7.40415599 C58.1595637,6.80778838 58.3368421,6.30005999 58.6509735,5.43777475 L59.2473412,5.43777475 L58.610919,7.84735206 C58.5627052,8.00868285 58.4577475,8.36323971 58.4577475,8.48414508 C58.4577475,8.52419962 58.4655359,8.61320971 58.554546,8.61320971 C58.7077175,8.61320971 58.9332097,8.33097355 59.2154459,7.97641669 L59.3278211,8.04910826 Z M62.2529152,6.44544314 C62.2529152,7.1222907 61.4874284,8.8227543 60.3833324,8.8227543 C60.0046687,8.8227543 60.0046687,8.61320971 60.0046687,8.55683665 C60.0046687,7.71086992 60.7783147,5.76043632 61.6647068,5.76043632 C62.1724352,5.76043632 62.2529152,6.19584401 62.2529152,6.44544314 Z M60.0128279,3.7380529 C60.4801309,3.74621216 60.536504,3.7862667 60.536504,3.97170439 C60.536504,4.0844505 60.4641833,4.28583583 60.4078102,4.51169894 L59.3118735,8.54867739 L59.3118735,8.58094355 C59.3118735,8.75822198 59.932348,9.00819198 60.3595964,9.00819198 C61.5923861,9.00819198 62.937922,7.61407145 62.937922,6.34085629 C62.937922,5.75264794 62.5433106,5.36582493 61.9792092,5.36582493 C61.2541478,5.36582493 60.7464194,6.11536406 60.4805018,6.53408236 L60.4645541,6.52629397 C60.738631,5.61542405 61.1091355,4.11671666 61.286414,3.45618762 L61.2463594,3.41613308 C60.8272702,3.49661304 60.4163403,3.55298609 60.0135697,3.60157077 L60.0135697,3.7380529 L60.0128279,3.7380529 Z M28.065994,15.0694082 C28.4609763,14.9967167 28.5818816,14.9726098 28.7187347,14.4730406 L29.7097137,10.9111535 C29.7579275,10.7498227 29.7983529,10.5565967 29.7983529,10.4115844 C29.7983529,10.1297191 29.5810199,10.1056122 29.2342514,10.0651868 L29.2342514,9.93612217 L31.2247396,9.93612217 L31.2247396,10.0651868 C30.8301282,10.1378784 30.7010635,10.153826 30.5638397,10.6615544 L29.5728606,14.2312299 C29.5246469,14.3925607 29.4842214,14.5535206 29.4842214,14.7471175 C29.4842214,15.0048759 29.6856068,15.0293537 30.0323752,15.0694082 L30.0323752,15.1984729 L28.065994,15.1984729 L28.065994,15.0694082 Z" id="Shape" fill="#000000" fill-rule="nonzero"></path>
                            <path d="M33.9080229,14.3602945 C33.5048814,14.9002891 33.2230161,15.2711644 32.7876084,15.2711644 C32.4171039,15.2711644 32.4007854,15.0293537 32.4007854,14.7957022 C32.4007854,14.6024761 32.997153,12.6360949 32.997153,12.3138042 C32.997153,12.1687919 32.9489392,12.0560458 32.7957677,12.0560458 C32.4089446,12.0560458 31.9012163,12.7492119 31.6111917,13.2001963 C31.2403163,13.7561385 31.1357295,14.1025361 30.8052795,15.1984729 L30.2011235,15.1984729 C30.4507227,14.2879738 30.9907172,12.4020725 30.9907172,12.2329534 C30.9907172,12.112048 30.9102373,12.0234088 30.4752004,12.0234088 L30.4752004,11.8943442 C30.9102373,11.8138642 31.3452741,11.7330134 31.7806818,11.6443741 L31.8047887,11.6606927 L31.2892719,13.3448377 L31.3052195,13.3611563 C31.6838833,12.7647887 32.4252632,11.644745 33.0939515,11.644745 C33.4648268,11.644745 33.6502645,11.838342 33.6502645,12.1769512 C33.6502645,12.5233488 33.0056831,14.5138369 33.0056831,14.7556477 C33.0056831,14.876553 33.1184292,14.8925007 33.1347478,14.8925007 C33.2960785,14.8925007 33.4974639,14.6347423 33.7952768,14.2560785 L33.9080229,14.3602945 Z M36.059471,12.0070903 L35.3826234,12.0070903 L34.6735097,14.6903736 C34.6653504,14.7144805 34.6653504,14.7304281 34.6653504,14.7549059 C34.6653504,14.8272266 34.705405,14.8917589 34.7944151,14.8917589 C34.9557458,14.8917589 35.2376111,14.5130952 35.4389965,14.2553368 L35.5435833,14.3117098 C35.1326534,14.9321843 34.818522,15.2867412 34.3994328,15.2867412 C34.238102,15.2867412 34.0126098,15.2062612 34.0126098,14.9644505 C34.0126098,14.8435451 34.1657813,14.3521353 34.1980475,14.2230706 L34.7780965,12.0070903 L34.1817289,12.0070903 C34.1739406,11.9588765 34.1739406,11.918451 34.1980475,11.8780256 C34.2462612,11.8053341 34.4717535,11.748961 34.6089774,11.6766403 C34.874895,11.5394164 35.261718,11.1770712 35.4872103,10.894835 C35.5194764,10.8547805 35.5517426,10.7820889 35.6240633,10.7984074 C35.6804363,10.7820889 35.6967548,10.8547805 35.6804363,10.9193128 L35.4549441,11.7493319 L36.0995255,11.7493319 L36.059471,12.0070903 Z M36.7763731,13.1675593 C37.0745569,12.4502863 37.6227107,11.8298118 38.0577475,11.8298118 C38.2591328,11.8298118 38.3399836,11.9829834 38.3399836,12.1521025 C38.3399836,12.2166349 38.2995582,13.183507 36.6398909,13.5221162 L36.7763731,13.1675593 Z M38.4364112,14.3198691 C38.0336406,14.6503191 37.6950314,14.9240251 37.2599945,14.9240251 C36.9213853,14.9240251 36.502667,14.7385874 36.502667,14.1908045 C36.502667,14.0294737 36.5427216,13.8685138 36.583147,13.6993946 L36.8086392,13.6671284 C38.1141205,13.4816908 38.8714481,12.8289501 38.8714481,12.1921571 C38.8714481,11.8376002 38.621478,11.6440033 38.2105481,11.6440033 C37.0745569,11.6440033 35.8009708,12.9976984 35.8009708,14.1500082 C35.8009708,14.6577366 36.0587292,15.2859995 36.9050668,15.2859995 C37.710979,15.2859995 38.4441996,14.5446196 38.5328388,14.4159258 L38.4364112,14.3198691 Z M39.0891519,15.198102 L39.7418926,12.8452686 C39.8223725,12.5470848 39.8709572,12.2730079 39.8709572,12.2006872 C39.8709572,12.0879411 39.8305318,11.9588765 39.5809326,11.9588765 C39.4922934,11.9588765 39.4036542,11.9829834 39.315015,11.9993019 L39.315015,11.862078 C39.7259449,11.8057049 40.2014071,11.7007472 40.5641233,11.6443741 L40.5882302,11.6606927 L40.1936188,13.2643578 L40.2095664,13.2803054 L40.2740987,13.1189746 C40.5400164,12.5871394 41.1523316,11.6440033 41.66006,11.6440033 C41.8454977,11.6440033 42.046883,11.7649086 42.046883,12.0389855 C42.046883,12.4580747 41.7568585,12.4580747 41.6682193,12.4580747 C41.3218217,12.4580747 41.442727,12.1680502 41.249501,12.1680502 C40.999531,12.1680502 40.5159095,13.0626016 40.451748,13.183507 C40.145405,13.763556 40.0326588,14.1262722 39.7022089,15.198102 L39.0891519,15.198102 Z" id="Shape" fill="#000000" fill-rule="nonzero"></path>
                            <path d="M45.2775784,14.3602945 C44.8748077,14.9002891 44.5925716,15.2711644 44.1575348,15.2711644 C43.7866594,15.2711644 43.7707118,15.0293537 43.7707118,14.7957022 C43.7707118,14.6024761 44.3670794,12.6360949 44.3670794,12.3138042 C44.3670794,12.1687919 44.3188656,12.0560458 44.165694,12.0560458 C43.7792419,12.0560458 43.2711426,12.7492119 42.9811181,13.2001963 C42.6106136,13.7561385 42.5056558,14.1025361 42.1752059,15.1984729 L41.5710499,15.1984729 C41.8210199,14.2879738 42.3606436,12.4020725 42.3606436,12.2329534 C42.3606436,12.112048 42.2801636,12.0234088 41.8447559,12.0234088 L41.8447559,11.8943442 C42.2797927,11.8138642 42.7152004,11.7330134 43.1502373,11.6443741 L43.1743442,11.6606927 L42.6584565,13.3448377 L42.6744041,13.3611563 C43.0530679,12.7647887 43.7944478,11.644745 44.463507,11.644745 C44.8343823,11.644745 45.0194491,11.838342 45.0194491,12.1769512 C45.0194491,12.5233488 44.3748677,14.5138369 44.3748677,14.7556477 C44.3748677,14.876553 44.4876139,14.8925007 44.5039324,14.8925007 C44.6652632,14.8925007 44.8666485,14.6347423 45.1648323,14.2560785 L45.2775784,14.3602945 Z" id="Path" fill="#000000"></path>
                            <path d="M45.8980529,14.3198691 C45.8980529,13.5944369 46.6234851,11.8220235 47.5662503,11.8220235 C47.7999018,11.8220235 48.0257649,11.975195 48.0257649,12.362018 C48.0257649,13.1516117 47.2361713,14.8921298 46.3816744,14.8921298 C46.1639705,14.8921298 45.8980529,14.7471175 45.8980529,14.3198691 Z M48.823147,14.3117098 C48.4604309,14.6662667 48.2991001,14.8680229 48.1785656,14.8680229 C48.1140333,14.8680229 48.0658195,14.8198091 48.0658195,14.7630652 C48.0658195,14.513466 48.8071993,11.7652795 48.8313062,11.6688519 L48.7749332,11.644745 L48.2835233,11.7011181 L48.2594164,11.725225 L48.1789365,12.0801527 L48.1629888,12.0801527 C48.1388819,11.8542896 47.8729643,11.644745 47.5265667,11.644745 C46.4547368,11.644745 45.2219471,13.1516117 45.2219471,14.3361876 C45.2219471,14.5698391 45.246054,15.2867412 46.0519662,15.2867412 C46.5355877,15.2867412 46.9624652,15.0449305 47.6311535,14.0621107 L47.6471012,14.0780584 C47.5180365,14.5694682 47.477982,14.7467467 47.477982,14.9321843 C47.477982,15.0690374 47.477982,15.2785819 47.8165912,15.2785819 C48.1629888,15.2785819 48.4370657,14.9885574 48.9206872,14.3921898 L48.823147,14.3117098 Z M51.2164058,12.0070903 L50.5395582,12.0070903 L49.8304445,14.6903736 C49.8222852,14.7144805 49.8222852,14.7304281 49.8222852,14.7549059 C49.8222852,14.8272266 49.8627107,14.8917589 49.9513499,14.8917589 C50.1126807,14.8917589 50.394546,14.5130952 50.5959313,14.2553368 L50.7005181,14.3117098 C50.2895882,14.9321843 49.9754568,15.2867412 49.5563676,15.2867412 C49.3950368,15.2867412 49.1695446,15.2062612 49.1695446,14.9644505 C49.1695446,14.8435451 49.3227161,14.3521353 49.3549823,14.2230706 L49.9350314,12.0070903 L49.3386638,12.0070903 C49.3308754,11.9588765 49.3308754,11.918451 49.3549823,11.8780256 C49.4031961,11.8053341 49.6286883,11.748961 49.7659122,11.6766403 C50.0318298,11.5394164 50.4186528,11.1770712 50.6441451,10.894835 C50.6764112,10.8547805 50.7086774,10.7820889 50.781369,10.7984074 C50.837742,10.7820889 50.8536897,10.8547805 50.837742,10.9193128 L50.6122498,11.7493319 L51.2568312,11.7493319 L51.2164058,12.0070903 Z M52.7636978,14.3684538 C52.4491955,14.843916 52.0950095,15.2871121 51.6436542,15.2871121 C51.2649905,15.2871121 51.2649905,14.9325552 51.2649905,14.787543 C51.2649905,14.4088792 51.9014126,12.4106027 51.9014126,12.1847396 C51.9014126,12.0152495 51.8368803,11.975195 51.3936842,11.975195 L51.3936842,11.8461304 C51.6996564,11.8301827 52.3683447,11.7011181 52.682847,11.644745 L52.7069539,11.6610635 L51.9978402,14.2557077 C51.965574,14.3684538 51.8687756,14.6907445 51.8687756,14.787543 C51.8687756,14.843916 51.9251486,14.9084483 51.9978402,14.9084483 C52.0946387,14.9084483 52.3282902,14.7471175 52.6583692,14.2798146 L52.7636978,14.3684538 Z M52.6023671,10.7824598 C52.4009817,10.7824598 52.215544,10.6456068 52.215544,10.3633706 C52.215544,10.0815053 52.4009817,9.92833379 52.5942078,9.92833379 C52.8601254,9.92833379 52.9969785,10.1942514 52.9969785,10.3715299 C52.9973493,10.5324898 52.8682847,10.7824598 52.6023671,10.7824598 Z M55.3987674,11.8138642 C55.7852195,11.8138642 55.9628688,12.1684211 55.9628688,12.5875102 C55.9628688,13.4497955 55.3264467,15.117622 54.4077884,15.117622 C54.0050177,15.117622 53.763207,14.8275975 53.763207,14.3680829 C53.7628361,13.4175293 54.4960567,11.8138642 55.3987674,11.8138642 Z M55.4551404,11.6443741 C54.2787238,11.6443741 53.0859885,12.9420671 53.0859885,14.1262722 C53.0859885,14.7949605 53.4487047,15.2863703 54.3028307,15.2863703 C55.5356204,15.2863703 56.6397164,13.8280884 56.6397164,12.8367385 C56.6393455,12.3052741 56.3897464,11.6443741 55.4551404,11.6443741 Z" id="Shape" fill="#000000" fill-rule="nonzero"></path>
                            <path d="M60.1530188,14.3602945 C59.7502482,14.9002891 59.468012,15.2711644 59.0329752,15.2711644 C58.6620998,15.2711644 58.6461522,15.0293537 58.6461522,14.7957022 C58.6461522,14.6024761 59.2425198,12.6360949 59.2425198,12.3138042 C59.2425198,12.1687919 59.194306,12.0560458 59.0411344,12.0560458 C58.6543114,12.0560458 58.146583,12.7492119 57.8565585,13.2001963 C57.4856831,13.7561385 57.3810963,14.1025361 57.0506463,15.1984729 L56.4464903,15.1984729 C56.6964603,14.2879738 57.236084,12.4020725 57.236084,12.2329534 C57.236084,12.112048 57.155604,12.0234088 56.7201963,12.0234088 L56.7201963,11.8943442 C57.1552332,11.8138642 57.5906409,11.7330134 58.0256777,11.6443741 L58.0497846,11.6606927 L57.5338969,13.3448377 L57.5498446,13.3611563 C57.9285083,12.7647887 58.6698882,11.644745 59.3389474,11.644745 C59.7098227,11.644745 59.8948896,11.838342 59.8948896,12.1769512 C59.8948896,12.5233488 59.2503082,14.5138369 59.2503082,14.7556477 C59.2503082,14.876553 59.3630543,14.8925007 59.3793728,14.8925007 C59.5407036,14.8925007 59.7420889,14.6347423 60.0402727,14.2560785 L60.1530188,14.3602945 Z M60.9344532,14.3198691 C60.9344532,13.5944369 61.6598855,11.8220235 62.6026507,11.8220235 C62.8363022,11.8220235 63.0617944,11.975195 63.0617944,12.362018 C63.0617944,13.1516117 62.2722007,14.8921298 61.4180747,14.8921298 C61.2003709,14.8921298 60.9344532,14.7471175 60.9344532,14.3198691 Z M63.8595473,14.3117098 C63.4968312,14.6662667 63.3355004,14.8680229 63.2149659,14.8680229 C63.1504336,14.8680229 63.1022198,14.8198091 63.1022198,14.7630652 C63.1022198,14.513466 63.8435997,11.7652795 63.8677066,11.6688519 L63.8113335,11.644745 L63.3195528,11.7011181 L63.2954459,11.725225 L63.2149659,12.0801527 L63.1990183,12.0801527 C63.1749114,11.8542896 62.9089937,11.644745 62.5625961,11.644745 C61.4907663,11.644745 60.2579765,13.1516117 60.2579765,14.3361876 C60.2579765,14.5698391 60.2820834,15.2867412 61.0879956,15.2867412 C61.5712463,15.2867412 61.9984947,15.0449305 62.667183,14.0621107 L62.6831306,14.0780584 C62.554066,14.5694682 62.5140115,14.7467467 62.5140115,14.9321843 C62.5140115,15.0690374 62.5140115,15.2785819 62.8522498,15.2785819 C63.1990183,15.2785819 63.4727243,14.9885574 63.9563458,14.3921898 L63.8595473,14.3117098 Z M65.6887047,14.2794437 C65.2777747,14.8999182 64.9636433,15.2867412 64.4640742,15.2867412 C64.1095173,15.2867412 64.0772512,15.0130352 64.0772512,14.7871721 C64.0772512,14.6180529 65.2455086,10.4115844 65.2455086,10.2424652 C65.2455086,10.0329206 64.9068994,10.0329206 64.6973548,10.0410799 L64.6973548,9.91201527 C65.1201962,9.86309085 65.5399491,9.79040798 65.9546223,9.69431143 L65.9946768,9.73473684 L64.7778347,14.4003491 C64.7618871,14.4726698 64.6973548,14.6903736 64.6973548,14.7790128 C64.6973548,14.8272266 64.6973548,14.9403436 64.8182602,14.9403436 C65.0196455,14.9403436 65.1887647,14.7148514 65.5837469,14.207123 L65.6887047,14.2794437 Z M66.8187619,9.87604036 L66.9014671,9.87604036 C66.9782383,9.87604036 67.0405454,9.91424052 67.0405454,10.0292119 C67.0405454,10.136024 67.0023452,10.2124243 66.9033215,10.2124243 L66.8187619,10.2124243 L66.8187619,9.87604036 Z M66.5932697,9.8678811 C66.6919226,9.87789474 66.6900682,9.87604036 66.6900682,9.96467957 L66.6900682,10.4460758 C66.6900682,10.5324898 66.6919226,10.5324898 66.5932697,10.5428743 L66.5932697,10.5729152 L66.9155604,10.5729152 L66.9155604,10.5428743 C66.8150532,10.5328606 66.8187619,10.5328606 66.8187619,10.4460758 L66.8187619,10.2487701 L66.9133352,10.2487701 C67.0401745,10.4360622 67.0906136,10.5729152 67.1551459,10.5729152 L67.2819853,10.5729152 L67.2819853,10.5547423 C67.2434142,10.5265558 67.1833324,10.4583147 67.131039,10.3856231 L67.0160676,10.228372 C67.1069321,10.1983311 67.1751732,10.1215599 67.1751732,10.0191983 C67.1751732,9.89421325 67.0642814,9.8378402 66.9456013,9.8378402 L66.5928988,9.8378402 L66.5928988,9.8678811 L66.5932697,9.8678811 Z M67.5964876,10.216504 C67.5964876,9.83561494 67.300529,9.52556313 66.9174148,9.52556313 C66.7343856,9.52506078 66.5587675,9.59782645 66.4297296,9.72763073 C66.3006918,9.85743501 66.2289674,10.033481 66.2305536,10.216504 C66.2305536,10.5970221 66.5309626,10.9033651 66.9174148,10.9033651 C67.300529,10.9033651 67.5964876,10.5970221 67.5964876,10.216504 Z M67.4855959,10.216504 C67.4855959,10.5365694 67.2337715,10.8188056 66.9174148,10.8188056 C66.5951241,10.8188056 66.3414453,10.5365694 66.3414453,10.216504 C66.3414453,9.89606763 66.5932697,9.61012272 66.9174148,9.61012272 C67.2359967,9.61012272 67.4855959,9.89421325 67.4855959,10.216504 Z" id="Shape" fill="#000000" fill-rule="nonzero"></path>
                            <g id="Group" transform="translate(0.064903, 0.231797)">
                                <path d="M17.9889392,17.0903082 C22.5985492,17.1129316 26.378511,13.3325989 26.3462449,8.73300245 C26.3781402,4.0076793 22.5985492,0.22771748 17.9889392,0.229200982 L8.75228797,0.229200982 C4.08741751,0.228088356 0.307455686,4.0076793 0.248115626,8.73300245 C0.307455686,13.3325989 4.08741751,17.1125607 8.7519171,17.0903082 L17.9889392,17.0903082 Z" id="Path" fill="#2D4F9E"></path>
                                <path d="M0.834840469,8.73300245 C0.880829016,4.32440687 4.4037742,0.80109081 8.75228797,0.815925825 C13.0959804,0.80109081 16.6192964,4.32440687 16.6693646,8.73337333 C16.6192964,13.016613 13.0959804,16.5399291 8.75228797,16.5039542 C4.4037742,16.5399291 0.880829016,13.0162422 0.834840469,8.73300245 Z" id="Path" fill="#FFFFFF"></path>
                                <path d="M6.99248432,4.04142896 C5.1703736,4.86365967 3.80332697,6.62160894 3.76698118,8.73300245 C3.80332697,10.7650286 5.10509954,12.5548732 6.99248432,13.2780802 L6.99248432,4.04142896 Z M10.5113499,13.278451 C12.3942842,12.5552441 13.6956858,10.7650286 13.736853,8.73337333 C13.6956858,6.57636215 12.3939133,4.78614671 10.5113499,4.04179984 L10.5113499,13.278451 Z" id="Shape" fill="#2D4F9E" fill-rule="nonzero"></path>
                            </g>
                        </g>
                    </g>
                </g>
            </g>
        </g>
    </g>
</svg>