<?xml version="1.0" encoding="UTF-8"?>
<svg width="40px" height="25px" viewBox="0 0 40 25" version="1.1" xmlns="http://www.w3.org/2000/svg" xmlns:xlink="http://www.w3.org/1999/xlink">
    <!-- Generator: sketchtool 52 (66869) - http://www.bohemiancoding.com/sketch -->
    <title>547600DA-8832-4E79-B2AE-71A5A071AB5F</title>
    <desc>Created with sketchtool.</desc>
    <g id="Reports-UI-(Rishi)" stroke="none" stroke-width="1" fill="none" fill-rule="evenodd">
        <g id="Transaction-Report-/-Detail-Expanded" transform="translate(-910.000000, -225.000000)">
            <g id="Group-8" transform="translate(160.000000, 197.000000)">
                <g id="Group" transform="translate(640.000000, 0.000000)">
                    <g id="mastercard-4" transform="translate(110.000000, 28.000000)">
                        <path d="M19.9806563,21.6688083 C22.076304,23.5997927 24.8905699,24.7710535 27.9517098,24.7710535 C34.5259067,24.7710535 39.8468739,19.408981 39.8468739,12.8139896 C39.8468739,6.19892919 34.5259067,0.836614853 27.9517098,0.836614853 C24.8905699,0.836614853 22.076304,2.00763385 19.9806563,3.9388601 C17.5769603,6.13702936 16.0565458,9.30093264 16.0565458,12.8139896 C16.0567876,16.3270466 17.5769603,19.4911917 19.9806563,21.6688083 Z" id="Path" fill="#E9B040"></path>
                        <path d="M38.2655268,19.4703972 C38.2655268,19.2648705 38.4299482,19.1006908 38.6352332,19.1006908 C38.8610708,19.1006908 39.0252504,19.2651123 39.0252504,19.4703972 C39.0252504,19.6967185 38.860829,19.8608981 38.6352332,19.8608981 C38.4299482,19.8608981 38.2655268,19.6967185 38.2655268,19.4703972 Z M38.6352332,19.7789292 C38.7996546,19.7789292 38.9430397,19.6348187 38.9430397,19.470639 C38.9430397,19.3064594 38.7994128,19.1831434 38.6352332,19.1831434 C38.4911226,19.1831434 38.3477375,19.3064594 38.3477375,19.470639 C38.3477375,19.6348187 38.4913644,19.7789292 38.6352332,19.7789292 Z M38.5941278,19.6556131 L38.5119171,19.6556131 L38.5119171,19.3062176 L38.655544,19.3062176 C38.6763385,19.3062176 38.7174439,19.3062176 38.7377547,19.3270121 C38.7788601,19.347323 38.7788601,19.3681174 38.7788601,19.4092228 C38.7788601,19.4503282 38.7585492,19.4914335 38.7174439,19.4914335 L38.7996546,19.6558549 L38.6966494,19.6558549 L38.655544,19.5117444 L38.5941278,19.5117444 L38.5941278,19.6556131 L38.5941278,19.4500864 L38.6763385,19.4500864 C38.6966494,19.4500864 38.6966494,19.4292919 38.6966494,19.408981 C38.6966494,19.3881865 38.6966494,19.3881865 38.6763385,19.3678756 L38.5941278,19.3678756 L38.5941278,19.6556131 Z" id="Shape" fill="#E9B040" fill-rule="nonzero"></path>
                        <path d="M23.8225561,11.5404491 C23.7814508,11.1090846 23.6992401,10.6982729 23.6170294,10.2666667 L16.3442832,10.2666667 C16.426494,9.83530225 16.54981,9.4244905 16.6728843,9.01343696 L23.2678756,9.01343696 C23.1247193,8.58094422 22.9601759,8.15582666 22.7748532,7.73965458 L17.1867012,7.73965458 C17.392249,7.30448699 17.6185067,6.87940655 17.8646978,6.46587219 L22.0765458,6.46587219 C21.8055479,6.02710374 21.5034984,5.60829085 21.1727116,5.21264249 L18.7687737,5.21264249 C19.1406202,4.75853459 19.5457831,4.33276201 19.9808981,3.9388601 C17.8649396,2.02818653 15.0707427,0.836614853 11.9890501,0.836614853 C5.43540587,0.836614853 0.0938860104,6.19892919 0.0938860104,12.8139896 C0.0938860104,19.408981 5.43540587,24.7710535 11.9890501,24.7710535 C15.0707427,24.7710535 17.8646978,23.5997927 19.9808981,21.6688083 C20.4093657,21.2817963 20.8077853,20.8627646 21.1727116,20.4153368 L18.7687737,20.4153368 C18.4399309,20.004525 18.1524352,19.5937133 17.8646978,19.1415544 L22.0765458,19.1415544 C22.3413826,18.7353024 22.5749071,18.3094778 22.775095,17.867772 L17.1867012,17.867772 C17.0017271,17.4569603 16.8169948,17.0461485 16.6728843,16.6143005 L23.2678756,16.6143005 C23.4115026,16.2034888 23.5145078,15.7723661 23.6167876,15.3405181 C23.6989983,14.9297064 23.781209,14.4985838 23.8223143,14.0667358 C23.8639577,13.6502145 23.8846171,13.2318618 23.8842142,12.8132642 C23.8842142,12.3826252 23.8636615,11.9512608 23.8225561,11.5404491 Z" id="Path" fill="#CC2131"></path>
                        <path d="M38.2655268,15.5876339 C38.2655268,15.3617962 38.4299482,15.1976166 38.6352332,15.1976166 C38.8610708,15.1976166 39.0252504,15.362038 39.0252504,15.5876339 C39.0252504,15.7931606 38.860829,15.9781347 38.6352332,15.9781347 C38.4299482,15.9781347 38.2655268,15.7929188 38.2655268,15.5876339 Z M38.6352332,15.8751295 C38.7996546,15.8751295 38.9430397,15.7518135 38.9430397,15.5876339 C38.9430397,15.4234542 38.7994128,15.3001382 38.6352332,15.3001382 C38.4911226,15.3001382 38.3477375,15.4234542 38.3477375,15.5876339 C38.3477375,15.7518135 38.4913644,15.8751295 38.6352332,15.8751295 Z M38.5941278,15.7518135 L38.5119171,15.7518135 L38.5119171,15.4232124 L38.7377547,15.4232124 C38.7788601,15.4440069 38.7788601,15.4851123 38.7788601,15.5262176 C38.7788601,15.5465285 38.7585492,15.5876339 38.7174439,15.6084283 L38.7996546,15.7520553 L38.6966494,15.7520553 L38.655544,15.6287392 L38.5941278,15.6287392 L38.5941278,15.7518135 L38.5941278,15.5670812 L38.6352332,15.5670812 C38.655544,15.5670812 38.6763385,15.5670812 38.6763385,15.5462867 C38.6966494,15.5462867 38.6966494,15.5259758 38.6966494,15.5051813 C38.6966494,15.5051813 38.6966494,15.4848705 38.6763385,15.4848705 C38.6763385,15.464076 38.655544,15.4848705 38.6352332,15.4848705 L38.5941278,15.4848705 L38.5941278,15.7518135 Z" id="Shape" fill="#FFFFFF" fill-rule="nonzero"></path>
                        <path d="M15.9334715,16.2656304 C15.5432124,16.368152 15.255475,16.4300518 14.9679793,16.4300518 C14.3516408,16.4300518 13.9816926,16.0395509 13.9816926,15.3410017 C13.9816926,15.1973748 14.0022453,15.053506 14.0227979,14.8890846 L14.1050086,14.4168566 L14.1666667,14.0263558 L14.7213472,10.6571675 L15.9540242,10.6571675 L15.8101554,11.3968221 L16.5909154,11.3968221 L16.4059413,12.6294991 L15.6251813,12.6294991 L15.2965803,14.6426943 C15.2760276,14.7456995 15.2760276,14.8071157 15.2760276,14.8482211 C15.2760276,15.1154059 15.3993437,15.2179275 15.7073921,15.2179275 C15.8512608,15.2179275 15.9743351,15.1976166 16.0976511,15.1768221 L15.9334715,16.2656304 Z M19.9192401,16.224525 C19.467323,16.3478411 19.0565112,16.4092573 18.6043523,16.4092573 C17.2072539,16.4092573 16.4059413,15.6696028 16.4059413,14.2113299 C16.4059413,12.5059413 17.3511226,11.2732642 18.6657686,11.2732642 C19.7134715,11.2732642 20.391468,11.9718135 20.391468,13.06038 C20.391468,13.4305699 20.3503627,13.7797237 20.2478411,14.2727461 L17.6797237,14.2727461 C17.659171,14.3549568 17.659171,14.3960622 17.659171,14.4371675 C17.659171,15.0124007 18.0494301,15.2998964 18.7890846,15.2998964 C19.2615544,15.2998964 19.6723661,15.1973748 20.124525,14.9920898 L19.9192401,16.224525 Z M19.1590328,13.2867012 L19.1590328,13.0400691 C19.1590328,12.6292573 18.9329534,12.4031779 18.5426943,12.4031779 C18.1316408,12.4031779 17.8441451,12.7112263 17.720829,13.2864594 L19.1590328,13.2864594 L19.1590328,13.2867012 Z M6.07205527,16.3270466 L4.79827288,16.3270466 L5.53792746,11.6637651 L3.87388601,16.3270466 L2.99060449,16.3270466 L2.88784111,11.6843178 L2.10708117,16.3270466 L0.853851468,16.3270466 L1.86044905,10.2666667 L3.73001727,10.2666667 L3.77112263,14.0060449 L5.02435233,10.2666667 L7.07889465,10.2666667 L6.07205527,16.3270466 Z M9.17454231,14.1291192 C9.05122625,14.1083247 9.0101209,14.1083247 8.92791019,14.1083247 C8.18825561,14.1083247 7.81854922,14.3958204 7.81854922,14.8479793 C7.81854922,15.1562694 8.00352332,15.3617962 8.291019,15.3617962 C8.90735751,15.3617962 9.15374784,14.8479793 9.17454231,14.1291192 Z M10.2016926,16.3270466 L9.09233161,16.3270466 L9.11288428,15.8137133 C8.8251468,16.2037306 8.43488774,16.4092573 7.75689119,16.4092573 C7.14055268,16.4092573 6.60642487,15.8548187 6.60642487,15.053506 C6.60642487,14.8276684 6.64753022,14.6223834 6.70918826,14.4168566 C6.91447323,13.6564076 7.67468048,13.1841796 8.84569948,13.1633851 C8.98956822,13.1633851 9.21540587,13.1633851 9.42093264,13.1841796 C9.4617962,13.0197582 9.4617962,12.9578584 9.4617962,12.8553368 C9.4617962,12.526494 9.1948532,12.4237306 8.59906736,12.4237306 C8.22936097,12.4237306 7.81830743,12.4853886 7.53081174,12.588152 L7.34583765,12.6292573 L7.26362694,12.6495682 L7.44860104,11.5402073 C8.04438687,11.3552332 8.4757513,11.2732642 8.94846287,11.2732642 C10.0578238,11.2732642 10.6536097,11.7868394 10.6536097,12.7317789 C10.6536097,12.9784111 10.6741623,13.1633851 10.5919516,13.697513 L10.304456,15.4643178 L10.2633506,15.7726079 L10.2427979,16.0192401 L10.2222453,16.1836615 L10.2016926,16.3270466 Z M26.1237306,11.4376857 C26.493437,11.4376857 26.8222798,11.5404491 27.2741969,11.7662867 L27.5000345,10.451399 C27.3767185,10.3897409 27.3356131,10.3897409 27.1714335,10.3280829 L26.6581002,10.1842142 C26.4936788,10.1431088 26.2883938,10.1225561 26.0620725,10.1225561 C25.4249396,10.1225561 25.0552332,10.1431088 24.6652159,10.3691883 C24.4596891,10.513057 24.1925043,10.6980311 23.9047668,11.0266321 L23.7403454,10.9855268 L22.4254577,11.9099136 L22.4873575,11.3963385 L21.1311226,11.3963385 L20.3302936,16.3268048 L21.6248705,16.3268048 L22.0970984,13.6769603 C22.0970984,13.6769603 22.2823143,13.3067703 22.3642832,13.1839378 C22.6109154,12.8756477 22.8162003,12.8756477 23.0831434,12.8756477 L23.1861485,12.8756477 C23.1430253,13.1887502 23.1223393,13.5045348 23.1242487,13.8205872 C23.1242487,15.4229706 24.0280829,16.42981 25.4251813,16.42981 C25.7745769,16.42981 26.0831088,16.3887047 26.5553368,16.2653886 L26.781658,14.868532 C26.3708463,15.0943696 26.0008981,15.197133 25.6926079,15.197133 C24.9326425,15.197133 24.4802418,14.6218998 24.4802418,13.7180656 C24.4797582,12.3826252 25.1579965,11.4376857 26.1237306,11.4376857 Z M37.0323661,10.2666667 L36.7451123,11.9923661 C36.4368221,11.5198964 36.0668739,11.2938169 35.5738515,11.2938169 C34.8956131,11.2938169 34.2589637,11.684076 33.8684629,12.4237306 L33.8684629,12.4034197 L33.0468394,11.9101554 L33.1290501,11.3965803 L31.7525043,11.3965803 L30.9717444,16.3270466 L32.2455268,16.3270466 L32.677133,13.6772021 C32.677133,13.6772021 33.005734,13.3070121 33.0879447,13.1841796 C33.2934715,12.9375475 33.4987565,12.8962003 33.6631779,12.8758895 C33.5195509,13.2867012 33.4373402,13.7797237 33.4373402,14.3346459 C33.4373402,15.567323 34.0739896,16.3889465 35.0189292,16.3889465 C35.4916408,16.3889465 35.8613472,16.224525 36.2105009,15.8340242 L36.1490846,16.3270466 L37.3614508,16.3270466 L38.3474957,10.2666667 L37.0323661,10.2666667 Z M35.4507772,15.1562694 C35.019171,15.1562694 34.7933333,14.8276684 34.7933333,14.1905354 C34.7933333,13.2248014 35.2041451,12.526494 35.7996891,12.526494 C36.2516062,12.526494 36.4779275,12.8758895 36.4779275,13.492228 C36.4779275,14.4782729 36.0671157,15.1562694 35.4507772,15.1562694 Z M29.5137133,14.1291192 C29.3903972,14.1083247 29.3492919,14.1083247 29.2670812,14.1083247 C28.526943,14.1083247 28.1572366,14.3958204 28.1572366,14.8479793 C28.1572366,15.1562694 28.3424525,15.3617962 28.6299482,15.3617962 C29.2462867,15.3617962 29.4929188,14.8479793 29.5137133,14.1291192 Z M30.5408636,16.3270466 L29.4107081,16.3270466 L29.4518135,15.8137133 C29.1643178,16.2037306 28.7735751,16.4092573 28.0960622,16.4092573 C27.4589292,16.4092573 26.9044905,15.8751295 26.9044905,15.053506 C26.9044905,13.8827288 27.7875302,13.1636269 29.1846287,13.1636269 C29.3287392,13.1636269 29.5543351,13.1636269 29.7395509,13.1844214 C29.7806563,13.02 29.8014508,12.9581002 29.8014508,12.8555786 C29.8014508,12.5267358 29.534266,12.4239724 28.9179275,12.4239724 C28.568532,12.4239724 28.1371675,12.4856304 27.8496718,12.5883938 L27.6852504,12.6294991 L27.6030397,12.64981 L27.787772,11.5404491 C28.3837997,11.355475 28.8154059,11.273506 29.2876339,11.273506 C30.3969948,11.273506 30.972228,11.7870812 30.972228,12.7320207 C30.972228,12.9786528 31.0133333,13.1636269 30.9108117,13.6977547 L30.6436269,15.4645596 L30.6025216,15.7728497 L30.5614162,16.0194819 L30.5411054,16.1839033 L30.5411054,16.3270466 L30.5408636,16.3270466 Z M12.8928843,12.4442832 C13.1395164,12.4442832 13.4886701,12.4648359 13.8586183,12.526494 L14.0435924,11.3760276 C13.6736442,11.3349223 13.1806218,11.2732642 12.8928843,11.2732642 C11.4549223,11.2732642 10.9824525,12.0540242 10.9824525,12.9578584 C10.9824525,13.553886 11.2493955,13.9850086 11.9479447,14.3136097 C12.4615199,14.5602418 12.5437306,14.6011054 12.5437306,14.8274266 C12.5437306,15.1352332 12.2767876,15.3204491 11.7835233,15.3204491 C11.3932642,15.3204491 11.0233161,15.2585492 10.6125043,15.1149223 L10.4686356,16.2445941 L10.4889465,16.2653886 L10.7355786,16.306494 C10.8177893,16.3268048 10.9205527,16.3475993 11.0644214,16.3679102 C11.3724698,16.3887047 11.6396546,16.4090155 11.804076,16.4090155 C13.2422798,16.4090155 13.8380656,15.8545769 13.8380656,14.7655268 C13.8380656,14.087772 13.5092228,13.6769603 12.8723316,13.3894646 C12.3176511,13.1425907 12.2559931,13.1019689 12.2559931,12.8756477 C12.2559931,12.64981 12.5026252,12.4442832 12.8928843,12.4442832 Z" id="Shape" fill="#1B3771" fill-rule="nonzero"></path>
                        <path d="M27.8494301,10.0611399 L27.6231088,11.3760276 C27.1711917,11.1499482 26.8423489,11.0474266 26.4726425,11.0474266 C25.5069085,11.0474266 24.8291537,11.9923661 24.8291537,13.3278066 C24.8291537,14.2524352 25.2810708,14.8068739 26.0415199,14.8068739 C26.3493264,14.8068739 26.7192746,14.7043523 27.1300864,14.4990674 L26.9042487,15.8751295 C26.4315371,15.9984456 26.1234888,16.0603454 25.7740933,16.0603454 C24.3772366,16.0603454 23.514266,15.053506 23.514266,13.4308117 C23.514266,11.273506 24.7058377,9.75309154 26.4109845,9.75309154 C26.6368221,9.75309154 26.8421071,9.77364421 27.0065285,9.81474957 L27.5203454,9.93806563 C27.6850086,9.99972366 27.726114,10.0202763 27.8494301,10.0611399 Z M23.6992401,10.9652159 L23.575924,10.9652159 C23.1448014,10.9652159 22.8981693,11.1707427 22.5076684,11.7662867 L22.6309845,11.0060794 L21.4597237,11.0060794 L20.6588946,15.9367876 L21.9534715,15.9367876 C22.4256995,12.916753 22.5490155,12.4031779 23.1653541,12.4031779 L23.2475648,12.4031779 C23.3708808,11.8073921 23.5350604,11.3757858 23.7405872,10.9855268 L23.6992401,10.9652159 Z M16.2623143,15.8751295 C15.9131606,15.9984456 15.6254231,16.0395509 15.3379275,16.0395509 C14.6804836,16.0395509 14.3105354,15.6698446 14.3105354,14.9509845 C14.3105354,14.8276684 14.3310881,14.6634888 14.3516408,14.5193782 L14.4338515,14.0263558 L14.4955095,13.6363385 L15.05019,10.2666667 L16.3239724,10.2666667 L16.1801036,11.0063212 L16.8375475,11.0063212 L16.6731261,12.2184456 L16.0156822,12.2184456 L15.6665285,14.2729879 C15.6459758,14.3551986 15.6459758,14.4170984 15.6459758,14.4785147 C15.6459758,14.7251468 15.7692919,14.8279102 16.0773402,14.8279102 C16.221209,14.8279102 16.3442832,14.8279102 16.426494,14.7868048 L16.2623143,15.8751295 Z M11.3110535,12.5675993 C11.3110535,13.1841796 11.5985492,13.6153022 12.2765458,13.9441451 C12.8106736,14.1907772 12.8928843,14.2727461 12.8928843,14.4782729 C12.8928843,14.786563 12.6668048,14.93019 12.1532297,14.93019 C11.7629706,14.93019 11.4135751,14.8687737 11.0027634,14.7454577 L10.8177893,15.8751295 L10.8794473,15.895924 L11.1055268,15.9370294 C11.1874957,15.9573402 11.2905009,15.9781347 11.4546805,15.9781347 C11.7421762,16.0192401 11.9888083,16.0192401 12.1532297,16.0192401 C13.508981,16.0192401 14.146114,15.5054231 14.146114,14.3757513 C14.146114,13.697513 13.879171,13.3070121 13.2422798,12.9992055 C12.6875993,12.7525734 12.6259413,12.6911572 12.6259413,12.4650777 C12.6259413,12.1981347 12.8520207,12.0748187 13.2628325,12.0748187 C13.5094646,12.0748187 13.8586183,12.0953713 14.1874611,12.1364767 L14.3721934,11.006563 C14.0435924,10.944905 13.5300173,10.9037997 13.2422798,10.9037997 C11.804076,10.9035579 11.2905009,11.6637651 11.3110535,12.5675993 Z M37.6902936,15.9370294 L36.4779275,15.9370294 L36.5398273,15.4643178 C36.1904318,15.8340242 35.8204836,15.9984456 35.347772,15.9984456 C34.4028325,15.9984456 33.786494,15.1976166 33.786494,13.9649396 C33.786494,12.321209 34.752228,10.9241105 35.8818998,10.9241105 C36.3957168,10.9241105 36.7654231,11.15019 37.1150604,11.6021071 L37.4025561,9.8764076 L38.6763385,9.8764076 L37.6902936,15.9370294 Z M35.7999309,14.786563 C36.3959585,14.786563 36.8067703,14.0880138 36.8067703,13.1222798 C36.8067703,12.4853886 36.5804491,12.1565458 36.128532,12.1565458 C35.5532988,12.1565458 35.1221762,12.8345423 35.1221762,13.8002763 C35.1221762,14.457962 35.3480138,14.786563 35.7999309,14.786563 Z M20.2067358,15.8340242 C19.7545769,15.9781347 19.3437651,16.0395509 18.8712953,16.0395509 C17.4330915,16.0395509 16.693437,15.2795855 16.693437,13.820829 C16.693437,12.1362349 17.6386183,10.8830052 18.9329534,10.8830052 C20.001209,10.8830052 20.6789637,11.5815544 20.6789637,12.6703627 C20.6789637,13.0403109 20.6378584,13.3897064 20.5145423,13.9030397 L17.9674611,13.9030397 C17.9469085,13.9649396 17.9469085,14.0060449 17.9469085,14.0471503 C17.9469085,14.6223834 18.3374093,14.9098791 19.0768221,14.9098791 C19.5492919,14.9098791 19.9601036,14.8276684 20.4122625,14.6015889 L20.2067358,15.8340242 Z M19.4876339,12.8962003 L19.4876339,12.64981 C19.4876339,12.2389983 19.2615544,12.0129188 18.8712953,12.0129188 C18.4604836,12.0129188 18.1727461,12.321209 18.0494301,12.8962003 L19.4876339,12.8962003 Z M6.4008981,15.9370294 L5.12711572,15.9370294 L5.86677029,11.2732642 L4.20272884,15.9370294 L3.31920553,15.9370294 L3.21644214,11.3143696 L2.43592401,15.9370294 L1.24435233,15.9370294 L2.25094991,9.8764076 L4.09996546,9.8764076 L4.16162349,13.6360967 L5.39405872,9.8764076 L7.40749568,9.8764076 L6.4008981,15.9370294 Z M9.58535406,13.7386183 C9.462038,13.7386183 9.40037997,13.7183074 9.29761658,13.7183074 C8.57851468,13.7183074 8.20880829,13.9852504 8.20880829,14.4782729 C8.20880829,14.786563 8.37322971,14.9712953 8.66072539,14.9712953 C9.1948532,14.9712953 9.56480138,14.4782729 9.58535406,13.7386183 Z M10.5302936,15.9370294 L9.4617962,15.9370294 L9.48234888,15.4232124 C9.15350604,15.8340242 8.72214162,16.0192401 8.12635579,16.0192401 C7.42780656,16.0192401 6.95533679,15.4851123 6.95533679,14.6837997 C6.95533679,13.4719171 7.77696028,12.7733679 9.21516408,12.7733679 C9.35903282,12.7733679 9.54400691,12.7939206 9.74929188,12.8142314 C9.79039724,12.6500518 9.79039724,12.5883938 9.79039724,12.5061831 C9.79039724,12.177582 9.56431779,12.054266 8.96853195,12.054266 C8.59882556,12.054266 8.18777202,12.0953713 7.90027634,12.177582 L7.71530225,12.2392401 L7.59198618,12.2597927 L7.77696028,11.1504318 C8.41385147,10.9654577 8.84521589,10.9037997 9.31792746,10.9037997 C10.4272884,10.9037997 11.0230743,11.3968221 11.0230743,12.3417617 C11.0230743,12.5883938 11.0025216,12.7733679 10.9203109,13.3280484 L10.6325734,15.0745423 L10.591468,15.3823489 L10.5709154,15.628981 L10.5503627,15.8141969 L10.5302936,15.9370294 Z M29.924525,13.7386183 C29.7804145,13.7386183 29.7189983,13.7183074 29.6370294,13.7183074 C28.8973748,13.7183074 28.5271848,13.9852504 28.5271848,14.4782729 C28.5271848,14.786563 28.7124007,14.9712953 28.9998964,14.9712953 C29.5137133,14.9712953 29.9037306,14.4782729 29.924525,13.7386183 Z M30.8694646,15.9370294 L29.801209,15.9370294 L29.8215199,15.4232124 C29.4929188,15.8340242 29.0615544,16.0192401 28.4657686,16.0192401 C27.7672193,16.0192401 27.2945078,15.4851123 27.2945078,14.6837997 C27.2945078,13.4719171 28.1161313,12.7733679 29.5543351,12.7733679 C29.6984456,12.7733679 29.8834197,12.7939206 30.068152,12.8142314 C30.1092573,12.6500518 30.1300518,12.5883938 30.1300518,12.5061831 C30.1300518,12.177582 29.9037306,12.054266 29.3084283,12.054266 C28.9382383,12.054266 28.5071157,12.0953713 28.2193782,12.177582 L28.0549568,12.2392401 L27.9316408,12.2597927 L28.1163731,11.1504318 C28.753506,10.9654577 29.1846287,10.9037997 29.6573402,10.9037997 C30.7667012,10.9037997 31.3419344,11.3968221 31.3419344,12.3417617 C31.3419344,12.5883938 31.3419344,12.7733679 31.2394128,13.3280484 L30.972228,15.0745423 L30.9311226,15.3823489 L30.8900173,15.628981 L30.8697064,15.8141969 L30.8697064,15.9370294 L30.8694646,15.9370294 Z M34.3208636,10.9652159 L34.1975475,10.9652159 C33.7664249,10.9652159 33.5197927,11.1707427 33.1292919,11.7662867 L33.2526079,11.0060794 L32.0813472,11.0060794 L31.3005872,15.9367876 L32.5743696,15.9367876 C33.0470812,12.916753 33.1703972,12.4031779 33.7867358,12.4031779 L33.8689465,12.4031779 C33.9922625,11.8073921 34.1564421,11.3757858 34.3619689,10.9855268 L34.3208636,10.9652159 Z" id="Shape" fill="#FFFFFF" fill-rule="nonzero"></path>
                    </g>
                </g>
            </g>
        </g>
    </g>
</svg>